<?xml version="1.0" encoding="utf-8"?>
<!-- Generator: Adobe Illustrator 26.0.2, SVG Export Plug-In . SVG Version: 6.00 Build 0)  -->
<svg version="1.1" id="图层_1" xmlns="http://www.w3.org/2000/svg" xmlns:xlink="http://www.w3.org/1999/xlink" x="0px" y="0px"
	 viewBox="0 0 1024 1024" style="enable-background:new 0 0 1024 1024;" xml:space="preserve">
<style type="text/css">
	.st0{fill:none;}
	.st1{fill:#CED3DE;}
	.st2{fill:#6D7C9A;fill-opacity:0.4;}
	.st3{fill:#CED3DC;}
	.st4{fill:#D8DCE3;}
	.st5{fill:url(#Path_00000129920274180263622540000009374381388697288861_);}
	.st6{fill:url(#Path_00000078032739126189877890000004833269026102625200_);}
	.st7{fill:url(#Path_00000142880613538117304940000005743347171881886851_);fill-opacity:9.000000e-02;}
	.st8{fill:url(#Path_00000149361264455579372480000013521084577662798774_);fill-opacity:0.2;}
	.st9{fill:url(#Path_00000078014483976355074620000011204045147964083640_);}
	.st10{fill:url(#Path_00000158713502660936411850000014286078395839563142_);}
	.st11{fill:#F4F8FD;}
	.st12{fill:#F2F6FA;}
	.st13{fill:#FFFFFF;stroke:#000000;stroke-width:0.5;stroke-miterlimit:10;}
	.st14{font-family:'DingTalk-JinBuTi';}
	.st15{font-size:45px;}
</style>
<path id="bg" class="st0" d="M0,0h1024v1024H0V0z"/>
<g>
	<path id="矩形" class="st0" d="M64,64h896v896H64V64z"/>
	<g>
		<path id="Path" class="st1" d="M209.6,758.4L512,664V282.8l-302.4,87.7V758.4z"/>
		<g>
			<path id="Path_00000030467327749036242290000000775051589912163262_" class="st2" d="M814.4,758.4L512,664V282.8l302.4,87.7
				V758.4z"/>
		</g>
		<path id="Path_00000119828441481771967480000016731042702061575809_" class="st3" d="M213.2,750.4l296.6-94V282l-296.6,82.3V750.4
			z"/>
		<path id="Path_00000078756728196164068580000003664085331276668304_" class="st4" d="M806.4,750.4l-296.6-94V282l296.6,82.3V750.4
			z"/>
		
			<linearGradient id="Path_00000142890416917579533730000007007319309856795527_" gradientUnits="userSpaceOnUse" x1="-444.7795" y1="1052.0369" x2="-445.2743" y2="1052.868" gradientTransform="matrix(302.4 0 0 -481.6 134935.3906 507464.2188)">
			<stop  offset="0" style="stop-color:#DCE2EC"/>
			<stop  offset="1" style="stop-color:#EEF1F5"/>
		</linearGradient>
		
			<path id="Path_00000116235082865887889100000001139722936195092119_" style="fill:url(#Path_00000142890416917579533730000007007319309856795527_);" d="
			M512,848l-302.4-94.5V366.4L512,460.9V848z"/>
		
			<linearGradient id="Path_00000183243573775414230650000002463629435235208601_" gradientUnits="userSpaceOnUse" x1="-444.7795" y1="1052.0369" x2="-445.2743" y2="1052.868" gradientTransform="matrix(302.4 0 0 -481.6 135237.8125 507464.2188)">
			<stop  offset="0" style="stop-color:#DCE2EC"/>
			<stop  offset="1" style="stop-color:#EEF1F5"/>
		</linearGradient>
		
			<path id="Path_00000042737871032718659950000006886217016825712057_" style="fill:url(#Path_00000183243573775414230650000002463629435235208601_);" d="
			M512,848l302.4-94.5V366.4L512,460.9V848z"/>
		
			<linearGradient id="Path_00000047058321196870390010000008985668970429503161_" gradientUnits="userSpaceOnUse" x1="-445.1598" y1="1052.3907" x2="-444.9647" y2="1052.7395" gradientTransform="matrix(302.4 0 0 -414.4 134935.3906 436702.5938)">
			<stop  offset="0" style="stop-color:#DCE2EC;stop-opacity:0"/>
			<stop  offset="1" style="stop-color:#DCE2EC"/>
		</linearGradient>
		
			<path id="Path_00000058550821955417381920000012472976531255258772_" style="fill:url(#Path_00000047058321196870390010000008985668970429503161_);fill-opacity:9.000000e-02;" d="
			M443.5,780.8l-233.9-26.3V366.4L512,461.1L443.5,780.8z"/>
		
			<linearGradient id="Path_00000030487560881743929220000011074370130378279813_" gradientUnits="userSpaceOnUse" x1="-445.0255" y1="1052.1028" x2="-445.0136" y2="1052.7711" gradientTransform="matrix(302.4 0 0 -380.8 135237.8125 401333.0312)">
			<stop  offset="0" style="stop-color:#DCE0E9"/>
			<stop  offset="1" style="stop-color:#DCE0E9"/>
		</linearGradient>
		
			<path id="Path_00000031207198337628922090000010522402929123614880_" style="fill:url(#Path_00000030487560881743929220000011074370130378279813_);fill-opacity:0.2;" d="
			M580.5,717l233.9,41.4V377.6L512,470.5L580.5,717z"/>
		
			<linearGradient id="Path_00000101102936581462374210000000929387220851697840_" gradientUnits="userSpaceOnUse" x1="-444.8493" y1="1052.2793" x2="-446.1042" y2="1052.4475" gradientTransform="matrix(448 0 0 -201.6 199873 212433.8125)">
			<stop  offset="0" style="stop-color:#F0F4F8"/>
			<stop  offset="1" style="stop-color:#DEE4ED"/>
		</linearGradient>
		
			<path id="Path_00000025423992683881636200000005293220043892689076_" style="fill:url(#Path_00000101102936581462374210000000929387220851697840_);" d="
			M512,283L370.3,176L64,280.1l146.7,97.5L512,283z"/>
		
			<linearGradient id="Path_00000138563953451877307320000013945812683340400788_" gradientUnits="userSpaceOnUse" x1="-445.8932" y1="1052.2483" x2="-445.0621" y2="1052.5023" gradientTransform="matrix(448 0 0 -201.6 200321 212433.8125)">
			<stop  offset="0" style="stop-color:#F0F4F8"/>
			<stop  offset="1" style="stop-color:#DEE4ED"/>
		</linearGradient>
		
			<path id="Path_00000110445180917111443300000007058823654390608032_" style="fill:url(#Path_00000138563953451877307320000013945812683340400788_);" d="
			M512,283l141.7-107L960,280.1l-146.7,97.5L512,283z"/>
		<path id="Path_00000061444199027567534100000011298465372870426803_" class="st11" d="M210.7,366.4L512,460.9l-150.3,95.9L64,458
			L210.7,366.4z"/>
		<path id="Path_00000078038270745226418610000012286560792764693652_" class="st12" d="M813.3,366.4L512,460.9l150.3,95.9L960,458
			L813.3,366.4z"/>
	</g>
</g>
<text transform="matrix(1 0 0 1 422.1497 939.6266)" class="st13 st14 st15">暂无数据</text>
</svg>
